ffmpeg version 3.4.8-0ubuntu0.2 Copyright (c) 2000-2020 the FFmpeg developers
  built with gcc 7 (Ubuntu 7.5.0-3ubuntu1~18.04)
  configuration: --prefix=/usr --extra-version=0ubuntu0.2 --toolchain=hardened --libdir=/usr/lib/x86_64-linux-gnu --incdir=/usr/include/x86_64-linux-gnu --enable-gpl --disable-stripping --enable-avresample --enable-avisynth --enable-gnutls --enable-ladspa --enable-libass --enable-libbluray --enable-libbs2b --enable-libcaca --enable-libcdio --enable-libflite --enable-libfontconfig --enable-libfreetype --enable-libfribidi --enable-libgme --enable-libgsm --enable-libmp3lame --enable-libmysofa --enable-libopenjpeg --enable-libopenmpt --enable-libopus --enable-libpulse --enable-librubberband --enable-librsvg --enable-libshine --enable-libsnappy --enable-libsoxr --enable-libspeex --enable-libssh --enable-libtheora --enable-libtwolame --enable-libvorbis --enable-libvpx --enable-libwavpack --enable-libwebp --enable-libx265 --enable-libxml2 --enable-libxvid --enable-libzmq --enable-libzvbi --enable-omx --enable-openal --enable-opengl --enable-sdl2 --enable-libdc1394 --enable-libdrm --enable-libiec61883 --enable-chromaprint --enable-frei0r --enable-libopencv --enable-libx264 --enable-shared
  libavutil      55. 78.100 / 55. 78.100
  libavcodec     57.107.100 / 57.107.100
  libavformat    57. 83.100 / 57. 83.100
  libavdevice    57. 10.100 / 57. 10.100
  libavfilter     6.107.100 /  6.107.100
  libavresample   3.  7.  0 /  3.  7.  0
  libswscale      4.  8.100 /  4.  8.100
  libswresample   2.  9.100 /  2.  9.100
  libpostproc    54.  7.100 / 54.  7.100
[rawvideo @ 0x555710cb5a20] Estimating duration from bitrate, this may be inaccurate
Input #0, rawvideo, from '../../SVC-Encoder-20220109T061506Z-001/SVC-Encoder/Dataset/RollerCoaster/ERP_8x8/tile_yuv/Tile_61_480x240.yuv':
  Duration: 00:00:10.00, start: 0.000000, bitrate: 41472 kb/s
    Stream #0:0: Video: rawvideo (I420 / 0x30323449), yuv420p, 480x240, 41472 kb/s, 30 tbr, 30 tbn, 30 tbc
Stream mapping:
  Stream #0:0 -> #0:0 (rawvideo (native) -> h264 (libx264))
Press [q] to stop, [?] for help
[libx264 @ 0x555710cc2c60] using cpu capabilities: MMX2 SSE2Fast LZCNT SSSE3 SSE4.2 AVX
[libx264 @ 0x555710cc2c60] profile High, level 2.1
Output #0, rawvideo, to 'RollerCoaster_Tile_61_480x240_x264_QP_40.h264':
  Metadata:
    encoder         : Lavf57.83.100
    Stream #0:0: Video: h264 (libx264), yuv420p, 480x240, q=-1--1, 30 fps, 30 tbn, 30 tbc
    Metadata:
      encoder         : Lavc57.107.100 libx264
    Side data:
      cpb: bitrate max/min/avg: 0/0/0 buffer size: 0 vbv_delay: -1
frame=  272 fps=0.0 q=46.0 PSNR=Y:nan U:nan V:nan *:nan size=      24kB time=00:00:07.63 bitrate=  25.9kbits/s speed=15.3x    frame=  300 fps=0.0 q=46.0 LPSNR=Y:inf U:inf V:inf *:inf size=      32kB time=00:00:09.93 bitrate=  26.8kbits/s speed=16.7x    
video:32kB audio:0kB subtitle:0kB other streams:0kB global headers:0kB muxing overhead: 0.000000%
[libx264 @ 0x555710cc2c60] frame I:2     Avg QP:38.32  size:  2682  PSNR Mean Y:35.37 U:43.59 V:36.55 Avg:36.24 Global:36.19
[libx264 @ 0x555710cc2c60] frame P:78    Avg QP:38.81  size:   175  PSNR Mean Y:34.82 U:43.49 V:37.52 Avg:35.90 Global:35.88
[libx264 @ 0x555710cc2c60] frame B:220   Avg QP:45.56  size:    65  PSNR Mean Y:34.61 U:43.50 V:37.47 Avg:35.72 Global:35.71
[libx264 @ 0x555710cc2c60] consecutive B-frames:  0.7%  4.0%  2.0% 93.3%
[libx264 @ 0x555710cc2c60] mb I  I16..4: 25.4% 56.4% 18.1%
[libx264 @ 0x555710cc2c60] mb P  I16..4:  0.2%  0.5%  0.0%  P16..4: 20.8%  0.8%  0.0%  0.0%  0.0%    skip:77.7%
[libx264 @ 0x555710cc2c60] mb B  I16..4:  0.0%  0.0%  0.0%  B16..8: 11.2%  0.1%  0.0%  direct: 0.0%  skip:88.7%  L0:47.1% L1:52.9% BI: 0.0%
[libx264 @ 0x555710cc2c60] 8x8 transform intra:59.8% inter:96.9%
[libx264 @ 0x555710cc2c60] coded y,uvDC,uvAC intra: 26.8% 45.3% 16.0% inter: 0.2% 0.5% 0.0%
[libx264 @ 0x555710cc2c60] i16 v,h,dc,p: 25% 71%  4%  1%
[libx264 @ 0x555710cc2c60] i8 v,h,dc,ddl,ddr,vr,hd,vl,hu:  1% 44% 49%  1%  0%  0%  1%  0%  3%
[libx264 @ 0x555710cc2c60] i4 v,h,dc,ddl,ddr,vr,hd,vl,hu:  4% 70% 15%  2%  1%  1%  3%  0%  5%
[libx264 @ 0x555710cc2c60] i8c dc,h,v,p: 43% 53%  1%  3%
[libx264 @ 0x555710cc2c60] Weighted P-Frames: Y:2.6% UV:0.0%
[libx264 @ 0x555710cc2c60] ref P L0: 47.6% 15.9% 26.5%  9.8%  0.2%
[libx264 @ 0x555710cc2c60] ref B L0: 56.7% 33.1% 10.2%
[libx264 @ 0x555710cc2c60] ref B L1: 76.6% 23.4%
[libx264 @ 0x555710cc2c60] PSNR Mean Y:34.670 U:43.497 V:37.477 Avg:35.767 Global:35.754 kb/s:26.58
